<svg width="150" height="28" viewBox="0 0 150 28" fill="none" xmlns="http://www.w3.org/2000/svg">
<rect opacity="0.2" width="150" height="28" fill="#D9D9D9"/>
<path d="M24.384 12.24L23.28 6.984C23.76 6.504 24.352 6.2 25.056 6.072C25.76 5.944 26.424 5.96 27.048 6.12C27.672 6.28 28.192 6.528 28.608 6.864C28.736 8.688 28.296 10.528 27.288 12.384L22.896 20.376L21.816 23.784C20.904 24.04 19.976 24.072 19.032 23.88C18.104 23.688 17.4 23.296 16.92 22.704L16.296 16.944L14.424 20.616L13.392 23.784C12.48 24.056 11.544 24.088 10.584 23.88C9.624 23.656 8.856 23.232 8.28 22.608L5.28 7.584C5.792 7.008 6.408 6.576 7.128 6.288C7.864 6 8.544 5.872 9.168 5.904C9.792 5.936 10.28 6.088 10.632 6.36L10.848 15.984L11.808 21.456L15.648 14.064L14.4 8.616C15.008 7.944 15.736 7.504 16.584 7.296C17.432 7.072 18.336 7.16 19.296 7.56L19.128 15.264L20.256 21.504L24.384 12.24ZM44.1019 11.904L41.8939 15.888C41.7819 18.08 41.7979 20.608 41.9419 23.472C41.4459 23.92 40.6379 24.08 39.5179 23.952C38.4139 23.824 37.5099 23.448 36.8059 22.824L37.8379 20.496L37.4779 20.136C35.5579 22.024 34.3659 23.2 33.9019 23.664C31.9979 23.584 30.5819 23.104 29.6539 22.224C28.7259 21.328 28.2539 20.184 28.2379 18.792C28.2219 16.856 29.0379 15.04 30.6859 13.344C32.3339 11.632 34.3899 10.744 36.8539 10.68C37.6219 11.208 38.3819 12.128 39.1339 13.44C39.0859 12.272 39.2299 11.392 39.5659 10.8C40.9099 10.576 41.9339 10.544 42.6379 10.704C43.3579 10.864 43.8459 11.264 44.1019 11.904ZM36.5899 13.128C35.4539 13.672 34.5579 14.456 33.9019 15.48C33.2459 16.504 32.9179 17.544 32.9179 18.6C32.9179 19.656 33.2539 20.4 33.9259 20.832C35.3019 19.76 36.7259 18.624 38.1979 17.424L38.5579 15.432C38.0619 14.408 37.4059 13.64 36.5899 13.128ZM45.9077 13.296C45.5557 12.912 45.3797 12.528 45.3797 12.144C45.3797 11.76 45.5477 11.32 45.8837 10.824L49.2677 10.92L48.9317 6.768C50.0197 6.176 50.9877 5.856 51.8357 5.808C52.6997 5.76 53.3637 5.976 53.8277 6.456L52.5797 10.344L56.6837 9.576C57.2917 10.104 57.2917 10.92 56.6837 12.024L52.1717 12.216C52.0757 13.448 51.9157 15.112 51.6917 17.208C51.4677 19.288 51.3237 20.68 51.2597 21.384C52.5077 20.888 53.7157 20.176 54.8837 19.248C55.4597 19.264 55.8437 19.4 56.0357 19.656C56.2277 19.912 56.2917 20.36 56.2277 21C54.4357 22.568 52.4917 23.568 50.3957 24C48.3317 23.792 47.0437 22.984 46.5317 21.576C47.5397 18.68 48.3877 15.736 49.0757 12.744L45.9077 13.296ZM66.3338 10.464C67.6938 10.704 68.6698 11.136 69.2618 11.76C69.8698 12.368 70.3258 13.256 70.6298 14.424C70.3898 15.112 69.8858 15.6 69.1178 15.888C68.3658 16.16 67.4218 16.208 66.2858 16.032C66.3818 14.896 66.1018 13.792 65.4458 12.72L64.7738 12.888C63.3498 14.28 62.6058 15.84 62.5418 17.568C62.4938 19.28 63.0778 20.6 64.2938 21.528C66.1178 21.048 67.6298 20.32 68.8298 19.344C69.9338 19.344 70.3418 19.952 70.0538 21.168C69.3978 21.824 68.4778 22.424 67.2938 22.968C66.1258 23.496 64.9178 23.84 63.6698 24C62.2938 23.808 61.1658 23.424 60.2858 22.848C59.4058 22.256 58.7978 21.592 58.4618 20.856C58.1258 20.12 57.9658 19.304 57.9818 18.408C57.9818 16.952 58.5818 15.528 59.7818 14.136C61.7818 12.168 63.9658 10.944 66.3338 10.464ZM86.658 14.04L85.554 16.92C85.394 18.888 85.458 21.072 85.746 23.472C85.218 23.92 84.418 24.088 83.346 23.976C82.274 23.848 81.378 23.472 80.658 22.848C80.834 21.12 81.378 18.504 82.29 15C82.178 14.408 81.874 13.984 81.378 13.728C80.322 14.24 79.066 15.208 77.61 16.632C77.498 18.504 77.25 20.784 76.866 23.472C76.114 23.92 75.154 24.072 73.986 23.928C72.834 23.768 72.106 23.416 71.802 22.872C73.194 19.288 74.202 15.352 74.826 11.064L74.73 4.92C76.746 3.816 78.418 3.56 79.746 4.152L78.186 9.912L78.162 12.96L77.202 14.112L77.418 14.448C78.97 12.864 80.506 11.608 82.026 10.68C83.338 10.76 84.37 11.128 85.122 11.784C85.874 12.44 86.386 13.192 86.658 14.04ZM108.853 12.24L107.749 6.984C108.229 6.504 108.821 6.2 109.525 6.072C110.229 5.944 110.893 5.96 111.517 6.12C112.141 6.28 112.661 6.528 113.077 6.864C113.205 8.688 112.765 10.528 111.757 12.384L107.365 20.376L106.285 23.784C105.373 24.04 104.445 24.072 103.501 23.88C102.573 23.688 101.869 23.296 101.389 22.704L100.765 16.944L98.8928 20.616L97.8608 23.784C96.9488 24.056 96.0128 24.088 95.0528 23.88C94.0928 23.656 93.3248 23.232 92.7488 22.608L89.7488 7.584C90.2608 7.008 90.8768 6.576 91.5968 6.288C92.3328 6 93.0128 5.872 93.6367 5.904C94.2608 5.936 94.7488 6.088 95.1008 6.36L95.3168 15.984L96.2768 21.456L100.117 14.064L98.8688 8.616C99.4768 7.944 100.205 7.504 101.053 7.296C101.901 7.072 102.805 7.16 103.765 7.56L103.597 15.264L104.725 21.504L108.853 12.24ZM114.627 15.912L114.459 11.448C116.491 10.52 118.059 10.448 119.163 11.232L117.987 15.24C117.843 16.52 117.675 19.264 117.483 23.472C116.779 23.92 115.875 24.064 114.771 23.904C113.683 23.744 112.899 23.384 112.419 22.824C113.411 20.408 114.147 18.104 114.627 15.912ZM119.523 7.104C119.539 7.712 119.323 8.24 118.875 8.688C118.443 9.136 117.907 9.36 117.267 9.36C116.643 9.36 116.099 9.136 115.635 8.688C115.171 8.24 114.931 7.712 114.915 7.104C114.915 6.48 115.147 5.952 115.611 5.52C116.075 5.072 116.627 4.848 117.267 4.848C117.907 4.848 118.443 5.072 118.875 5.52C119.307 5.952 119.523 6.48 119.523 7.104ZM127.81 20.184C127.81 19.8 126.802 19.12 124.786 18.144C124.018 17.76 123.258 17.256 122.506 16.632C121.77 16.008 121.29 15.36 121.066 14.688C121.626 13.344 122.498 12.272 123.682 11.472C124.882 10.672 126.25 10.232 127.786 10.152C128.858 10.344 129.714 10.672 130.354 11.136C131.01 11.6 131.538 12.232 131.938 13.032C131.89 13.672 131.57 14.136 130.978 14.424C130.402 14.712 129.57 14.776 128.482 14.616C128.258 13.464 127.834 12.576 127.21 11.952C126.602 12.144 126.05 12.44 125.554 12.84C125.058 13.224 124.81 13.56 124.81 13.848C124.81 14.12 125.138 14.456 125.794 14.856C126.45 15.256 127.186 15.648 128.002 16.032C128.818 16.4 129.61 16.896 130.378 17.52C131.162 18.144 131.65 18.784 131.842 19.44C131.474 20.816 130.674 21.904 129.442 22.704C128.21 23.504 126.722 23.936 124.978 24C123.826 23.84 122.818 23.504 121.954 22.992C121.09 22.48 120.458 21.848 120.058 21.096C120.842 19.24 122.034 18.576 123.634 19.104C123.746 19.84 123.906 20.432 124.114 20.88C124.322 21.312 124.658 21.8 125.122 22.344C125.874 22.168 126.506 21.872 127.018 21.456C127.546 21.024 127.81 20.6 127.81 20.184ZM142.513 10.416C144.225 10.624 145.369 11.288 145.945 12.408C146.537 13.512 146.577 14.84 146.065 16.392C143.505 17.656 140.929 18.552 138.337 19.08C138.497 20.072 139.009 20.88 139.873 21.504C141.665 21.216 143.265 20.576 144.673 19.584C145.761 19.52 146.201 20.112 145.993 21.36C145.369 22 144.377 22.568 143.017 23.064C141.673 23.56 140.409 23.872 139.225 24C137.353 23.696 135.961 23.024 135.049 21.984C134.137 20.944 133.705 19.72 133.753 18.312C133.849 16.776 134.433 15.368 135.505 14.088C137.841 12.136 140.177 10.912 142.513 10.416ZM141.193 12.744L140.737 12.936C139.969 13.56 139.369 14.288 138.937 15.12C138.505 15.936 138.273 16.736 138.241 17.52C139.441 17.152 140.785 16.608 142.273 15.888C142.561 14.448 142.201 13.4 141.193 12.744Z" fill="#0A0A18"/>
</svg>
